<svg xmlns="http://www.w3.org/2000/svg" width="24" height="24" viewBox="0 0 24 24" fill="none" stroke="hsl(120 70% 45%)" stroke-width="2" stroke-linecap="round" stroke-linejoin="round"><path d="M16.2 3.8a2.7 2.7 0 0 0-3.8 0l-.4.3-.4-.4a2.7 2.7 0 0 0-3.8 0A2.7 2.7 0 0 0 6 7.6l.3.4-.4.4a2.7 2.7 0 0 0 0 3.8A2.7 2.7 0 0 0 9.7 12l-4 4.8a2.7 2.7 0 0 0 0 3.8 2.7 2.7 0 0 0 3.8 0l.4-.3.4.4a2.7 2.7 0 0 0 3.8 0l4-4.8a2.7 2.7 0 0 0 0-3.8 2.7 2.7 0 0 0-3.8 0l-.4.3.4-.4a2.7 2.7 0 0 0 0-3.8Z"/><path d="m12 12 4.8 4.8"/></svg>