<svg width="256" height="256" viewBox="0 0 256 256" fill="none" xmlns="http://www.w3.org/2000/svg">
<path d="M128 32C106.667 32 85.3333 42.6667 64 64C42.6667 85.3333 32 106.667 32 128C32 149.333 42.6667 170.667 64 192C85.3333 213.333 106.667 224 128 224C149.333 224 170.667 213.333 192 192C213.333 170.667 224 149.333 224 128C224 106.667 213.333 85.3333 192 64C170.667 42.6667 149.333 32 128 32Z" fill="#39FF14"/>
<path d="M128 32C106.667 32 85.3333 42.6667 64 64C42.6667 85.3333 32 106.667 32 128C32 149.333 42.6667 170.667 64 192C85.3333 213.333 106.667 224 128 224" stroke="#39FF14" stroke-width="16"/>
<path d="M128 32C149.333 32 170.667 42.6667 192 64C213.333 85.3333 224 106.667 224 128C224 149.333 213.333 170.667 192 192C170.667 213.333 149.333 224 128 224" stroke="#39FF14" stroke-width="16"/>
</svg>
